<svg width="60" height="59" viewBox="0 0 60 59" fill="none" xmlns="http://www.w3.org/2000/svg">
<mask id="mask0_273_3135" style="mask-type:alpha" maskUnits="userSpaceOnUse" x="0" y="0" width="60" height="59">
<rect x="0.5" width="59" height="59" fill="#D9D9D9"/>
</mask>
<g mask="url(#mask0_273_3135)">
<path d="M27.5417 31.5893L25.3292 33.7403C24.8785 34.191 24.3151 34.4163 23.6391 34.4163C22.9631 34.4163 22.3792 34.1705 21.8875 33.6788C21.4368 33.2281 21.2115 32.6545 21.2115 31.958C21.2115 31.2615 21.4368 30.6879 21.8875 30.2372L28.2792 23.8455C28.7709 23.3538 29.3445 23.108 30 23.108C30.6556 23.108 31.2292 23.3538 31.7209 23.8455L38.1125 30.2372C38.5632 30.6879 38.7988 31.2512 38.8193 31.9273C38.8398 32.6033 38.6042 33.1872 38.1125 33.6788C37.6618 34.1295 37.0985 34.3651 36.4224 34.3856C35.7464 34.4061 35.1625 34.191 34.6709 33.7403L32.4584 31.5893V44.2497H45.9792C47.7 44.2497 49.1546 43.6556 50.3428 42.4674C51.5309 41.2792 52.125 39.8247 52.125 38.1038C52.125 36.383 51.5309 34.9285 50.3428 33.7403C49.1546 32.5521 47.7 31.958 45.9792 31.958H42.2917V27.0413C42.2917 23.6406 41.0933 20.7419 38.6964 18.345C36.2995 15.9481 33.4007 14.7497 30 14.7497C26.5993 14.7497 23.7006 15.9481 21.3037 18.345C18.9068 20.7419 17.7084 23.6406 17.7084 27.0413H16.4792C14.1028 27.0413 12.0747 27.8813 10.3948 29.5611C8.71497 31.241 7.87504 33.2691 7.87504 35.6455C7.87504 38.0219 8.71497 40.05 10.3948 41.7299C12.0747 43.4097 14.1028 44.2497 16.4792 44.2497H20.1667C20.8632 44.2497 21.4471 44.4853 21.9183 44.9564C22.3895 45.4276 22.625 46.0115 22.625 46.708C22.625 47.4045 22.3895 47.9884 21.9183 48.4596C21.4471 48.9308 20.8632 49.1663 20.1667 49.1663H16.4792C12.7507 49.1663 9.56515 47.8757 6.92244 45.2945C4.27973 42.7132 2.95837 39.5584 2.95837 35.8299C2.95837 32.6341 3.92122 29.7865 5.84692 27.2872C7.77261 24.7879 10.2924 23.19 13.4063 22.4934C14.4306 18.724 16.4792 15.6716 19.5521 13.3361C22.625 11.0007 26.1077 9.83301 30 9.83301C34.7938 9.83301 38.8603 11.5026 42.1995 14.8419C45.5388 18.1811 47.2084 22.2476 47.2084 27.0413C50.0355 27.3691 52.3811 28.588 54.2454 30.6981C56.1096 32.8082 57.0417 35.2768 57.0417 38.1038C57.0417 41.1768 55.9662 43.7887 53.8151 45.9398C51.6641 48.0908 49.0521 49.1663 45.9792 49.1663H32.4584C31.1063 49.1663 29.9488 48.6849 28.986 47.7221C28.0231 46.7592 27.5417 45.6018 27.5417 44.2497V31.5893Z" fill="#B5B5B5"/>
</g>
</svg>
