<svg width="232" height="58" viewBox="0 0 232 58" fill="none" xmlns="http://www.w3.org/2000/svg">
<path d="M83.2723 19.518C80.8083 19.518 78.9203 20.27 77.6083 21.774C76.2963 23.278 75.6403 25.406 75.6403 28.158C75.6403 30.942 76.3603 33.086 77.8003 34.59C79.2723 36.094 81.2403 36.846 83.7043 36.846C85.0163 36.846 86.1203 36.67 87.0163 36.318C87.9443 35.966 88.8243 35.566 89.6563 35.118C90.2003 35.566 90.6163 36.11 90.9043 36.75C91.2243 37.358 91.3843 38.078 91.3843 38.91C91.3843 40.222 90.6483 41.342 89.1763 42.27C87.7363 43.166 85.5283 43.614 82.5523 43.614C80.4083 43.614 78.3923 43.31 76.5043 42.702C74.6163 42.094 72.9683 41.166 71.5603 39.918C70.1523 38.638 69.0323 37.038 68.2003 35.118C67.4003 33.166 67.0003 30.846 67.0003 28.158C67.0003 25.662 67.3843 23.47 68.1523 21.582C68.9523 19.662 70.0243 18.046 71.3683 16.734C72.7443 15.422 74.3443 14.43 76.1683 13.758C77.9923 13.086 79.9443 12.75 82.0243 12.75C84.9683 12.75 87.2403 13.23 88.8403 14.19C90.4723 15.15 91.2883 16.382 91.2883 17.886C91.2883 18.718 91.0803 19.438 90.6643 20.046C90.2483 20.654 89.7683 21.134 89.2243 21.486C88.3923 20.942 87.4963 20.478 86.5363 20.094C85.6083 19.71 84.5203 19.518 83.2723 19.518ZM118.773 31.086C118.773 33.07 118.469 34.846 117.861 36.414C117.253 37.95 116.389 39.246 115.269 40.302C114.181 41.358 112.869 42.158 111.333 42.702C109.797 43.246 108.085 43.518 106.197 43.518C104.309 43.518 102.597 43.23 101.061 42.654C99.5248 42.078 98.1968 41.262 97.0768 40.206C95.9888 39.118 95.1408 37.806 94.5328 36.27C93.9248 34.734 93.6208 33.006 93.6208 31.086C93.6208 29.198 93.9248 27.486 94.5328 25.95C95.1408 24.414 95.9888 23.118 97.0768 22.062C98.1968 20.974 99.5248 20.142 101.061 19.566C102.597 18.99 104.309 18.702 106.197 18.702C108.085 18.702 109.797 19.006 111.333 19.614C112.869 20.19 114.181 21.022 115.269 22.11C116.389 23.166 117.253 24.462 117.861 25.998C118.469 27.534 118.773 29.23 118.773 31.086ZM101.973 31.086C101.973 33.038 102.341 34.542 103.077 35.598C103.845 36.622 104.901 37.134 106.245 37.134C107.589 37.134 108.613 36.606 109.317 35.55C110.053 34.494 110.421 33.006 110.421 31.086C110.421 29.166 110.053 27.694 109.317 26.67C108.581 25.614 107.541 25.086 106.197 25.086C104.853 25.086 103.813 25.614 103.077 26.67C102.341 27.694 101.973 29.166 101.973 31.086ZM122.61 33.822C122.386 33.47 122.178 33.006 121.986 32.43C121.794 31.854 121.698 31.246 121.698 30.606C121.698 29.422 121.97 28.574 122.514 28.062C123.058 27.518 123.762 27.246 124.626 27.246H134.898C135.09 27.598 135.282 28.062 135.474 28.638C135.698 29.214 135.81 29.822 135.81 30.462C135.81 31.646 135.538 32.51 134.994 33.054C134.45 33.566 133.746 33.822 132.882 33.822H122.61ZM148.603 31.182C147.195 30.702 145.915 30.222 144.763 29.742C143.611 29.23 142.619 28.622 141.787 27.918C140.955 27.214 140.299 26.382 139.819 25.422C139.371 24.43 139.147 23.23 139.147 21.822C139.147 19.102 140.187 16.926 142.267 15.294C144.379 13.662 147.323 12.846 151.099 12.846C152.475 12.846 153.755 12.942 154.939 13.134C156.123 13.326 157.131 13.63 157.963 14.046C158.827 14.43 159.499 14.942 159.979 15.582C160.459 16.19 160.699 16.91 160.699 17.742C160.699 18.574 160.507 19.294 160.123 19.902C159.739 20.478 159.275 20.974 158.731 21.39C158.027 20.942 157.083 20.558 155.899 20.238C154.715 19.886 153.419 19.71 152.011 19.71C150.571 19.71 149.515 19.918 148.843 20.334C148.171 20.718 147.835 21.214 147.835 21.822C147.835 22.302 148.043 22.702 148.459 23.022C148.875 23.31 149.499 23.582 150.331 23.838L152.875 24.654C155.883 25.614 158.187 26.846 159.787 28.35C161.419 29.822 162.235 31.838 162.235 34.398C162.235 37.118 161.163 39.326 159.019 41.022C156.875 42.686 153.723 43.518 149.563 43.518C148.091 43.518 146.715 43.39 145.435 43.134C144.187 42.91 143.083 42.574 142.123 42.126C141.195 41.646 140.459 41.07 139.915 40.398C139.403 39.694 139.147 38.894 139.147 37.998C139.147 37.07 139.419 36.286 139.963 35.646C140.507 34.974 141.099 34.462 141.739 34.11C142.635 34.814 143.723 35.422 145.003 35.934C146.315 36.446 147.739 36.702 149.275 36.702C150.843 36.702 151.947 36.462 152.587 35.982C153.227 35.502 153.547 34.942 153.547 34.302C153.547 33.662 153.291 33.182 152.779 32.862C152.267 32.51 151.547 32.174 150.619 31.854L148.603 31.182ZM165.968 12.942C165.968 11.726 166.368 10.702 167.168 9.87C168 9.038 169.088 8.622 170.432 8.622C171.776 8.622 172.848 9.038 173.648 9.87C174.48 10.702 174.896 11.726 174.896 12.942C174.896 14.158 174.48 15.182 173.648 16.014C172.848 16.846 171.776 17.262 170.432 17.262C169.088 17.262 168 16.846 167.168 16.014C166.368 15.182 165.968 14.158 165.968 12.942ZM174.512 42.702C174.16 42.766 173.632 42.846 172.928 42.942C172.256 43.07 171.568 43.134 170.864 43.134C170.16 43.134 169.52 43.086 168.944 42.99C168.4 42.894 167.936 42.702 167.552 42.414C167.168 42.126 166.864 41.742 166.64 41.262C166.448 40.75 166.352 40.094 166.352 39.294V19.758C166.704 19.694 167.216 19.614 167.888 19.518C168.592 19.39 169.296 19.326 170 19.326C170.704 19.326 171.328 19.374 171.872 19.47C172.448 19.566 172.928 19.758 173.312 20.046C173.696 20.334 173.984 20.734 174.176 21.246C174.4 21.726 174.512 22.366 174.512 23.166V42.702ZM178.699 31.086C178.699 28.974 179.019 27.15 179.659 25.614C180.299 24.046 181.179 22.75 182.299 21.726C183.451 20.702 184.779 19.95 186.283 19.47C187.819 18.958 189.467 18.702 191.227 18.702C191.867 18.702 192.491 18.766 193.099 18.894C193.707 18.99 194.203 19.118 194.587 19.278V11.502C194.907 11.406 195.419 11.31 196.123 11.214C196.827 11.086 197.547 11.022 198.283 11.022C198.987 11.022 199.611 11.07 200.155 11.166C200.731 11.262 201.211 11.454 201.595 11.742C201.979 12.03 202.267 12.43 202.459 12.942C202.651 13.422 202.747 14.062 202.747 14.862V37.614C202.747 39.118 202.043 40.318 200.635 41.214C199.707 41.822 198.507 42.35 197.035 42.798C195.563 43.278 193.867 43.518 191.947 43.518C189.867 43.518 187.995 43.23 186.331 42.654C184.699 42.078 183.307 41.246 182.155 40.158C181.035 39.07 180.171 37.774 179.563 36.27C178.987 34.734 178.699 33.006 178.699 31.086ZM192.331 25.086C190.603 25.086 189.275 25.582 188.347 26.574C187.419 27.566 186.955 29.07 186.955 31.086C186.955 33.07 187.387 34.574 188.251 35.598C189.115 36.59 190.363 37.086 191.995 37.086C192.571 37.086 193.083 37.006 193.531 36.846C194.011 36.654 194.379 36.446 194.635 36.222V25.662C193.995 25.278 193.227 25.086 192.331 25.086ZM220.168 43.518C218.28 43.518 216.52 43.262 214.888 42.75C213.288 42.206 211.88 41.406 210.664 40.35C209.48 39.294 208.536 37.966 207.832 36.366C207.16 34.766 206.824 32.894 206.824 30.75C206.824 28.638 207.16 26.83 207.832 25.326C208.536 23.79 209.448 22.542 210.568 21.582C211.688 20.59 212.968 19.87 214.408 19.422C215.848 18.942 217.32 18.702 218.824 18.702C220.52 18.702 222.056 18.958 223.432 19.47C224.84 19.982 226.04 20.686 227.032 21.582C228.056 22.478 228.84 23.55 229.384 24.798C229.96 26.046 230.248 27.406 230.248 28.878C230.248 29.966 229.944 30.798 229.336 31.374C228.728 31.95 227.88 32.318 226.792 32.478L214.936 34.254C215.288 35.31 216.008 36.11 217.096 36.654C218.184 37.166 219.432 37.422 220.84 37.422C222.152 37.422 223.384 37.262 224.536 36.942C225.72 36.59 226.68 36.19 227.416 35.742C227.928 36.062 228.36 36.51 228.712 37.086C229.064 37.662 229.24 38.27 229.24 38.91C229.24 40.35 228.568 41.422 227.224 42.126C226.2 42.67 225.048 43.038 223.768 43.23C222.488 43.422 221.288 43.518 220.168 43.518ZM218.824 24.654C218.056 24.654 217.384 24.782 216.808 25.038C216.264 25.294 215.816 25.63 215.464 26.046C215.112 26.43 214.84 26.878 214.648 27.39C214.488 27.87 214.392 28.366 214.36 28.878L222.568 27.534C222.472 26.894 222.12 26.254 221.512 25.614C220.904 24.974 220.008 24.654 218.824 24.654Z" fill="#459BFF"/>
<g clip-path="url(#clip0_332_939)">
<path d="M55.9611 42.7111C52.2516 46.4207 47.2203 48.5047 41.9741 48.5047C36.728 48.5047 31.6967 46.4207 27.9871 42.7111C24.2775 39.0015 22.1935 33.9702 22.1935 28.7241C22.1935 23.4779 24.2775 18.4466 27.9871 14.737L41.9741 28.7241L55.9611 42.7111Z" fill="#93DC70"/>
<path d="M28 56.75C24.323 56.75 20.682 56.0258 17.2849 54.6186C13.8877 53.2115 10.801 51.149 8.20101 48.549C5.60097 45.9489 3.5385 42.8622 2.13137 39.4651C0.724238 36.068 -1.38465e-06 32.427 -1.22392e-06 28.75C-1.06319e-06 25.073 0.724242 21.432 2.13137 18.0349C3.5385 14.6377 5.60097 11.551 8.20101 8.95101C10.8011 6.35097 13.8877 4.2885 17.2849 2.88137C20.682 1.47424 24.323 0.749998 28 0.749999L28 28.75L28 56.75Z" fill="#BF8FFD"/>
<path d="M56 14.75C56 11.037 54.525 7.47601 51.8995 4.85051C49.274 2.225 45.713 0.75 42 0.75C38.287 0.75 34.726 2.225 32.1005 4.8505C29.475 7.47601 28 11.037 28 14.75L42 14.75H56Z" fill="#FFBA30"/>
<path d="M56 42.75C56 44.5885 55.6379 46.409 54.9343 48.1076C54.2307 49.8061 53.1995 51.3495 51.8995 52.6495C50.5995 53.9495 49.0561 54.9807 47.3576 55.6843C45.659 56.3879 43.8385 56.75 42 56.75C40.1615 56.75 38.341 56.3879 36.6424 55.6843C34.9439 54.9807 33.4005 53.9495 32.1005 52.6495C30.8005 51.3495 29.7693 49.8061 29.0657 48.1076C28.3621 46.409 28 44.5885 28 42.75L42 42.75L56 42.75Z" fill="#FF5D5D"/>
</g>
<defs>
<clipPath id="clip0_332_939">
<rect width="69.9482" height="57" fill="white" transform="translate(0 0.25)"/>
</clipPath>
</defs>
</svg>
