<svg width="20" height="20" viewBox="0 0 20 20" fill="none" xmlns="http://www.w3.org/2000/svg">
<mask id="mask0_1604_6114" style="mask-type:alpha" maskUnits="userSpaceOnUse" x="0" y="0" width="20" height="20">
<rect width="20" height="20" fill="#D9D9D9"/>
</mask>
<g mask="url(#mask0_1604_6114)">
<path d="M9.375 10.1794L8.26438 11.2773C8.15035 11.3926 8.00778 11.4502 7.83667 11.4502C7.66569 11.4502 7.51819 11.3883 7.39417 11.2644C7.27347 11.149 7.21444 11.0026 7.21708 10.8254C7.21986 10.6481 7.27889 10.5017 7.39417 10.3863L9.47271 8.30771C9.6234 8.15701 9.79917 8.08167 10 8.08167C10.2008 8.08167 10.3766 8.15701 10.5273 8.30771L12.6058 10.3863C12.7211 10.5017 12.7822 10.6456 12.7892 10.8181C12.7961 10.9906 12.735 11.1396 12.6058 11.265C12.4904 11.38 12.3462 11.4383 12.1731 11.4398C12.0001 11.4415 11.8515 11.3846 11.7275 11.2692L10.625 10.1794V14.7435C10.625 14.8077 10.6517 14.8665 10.7052 14.9198C10.7585 14.9733 10.8173 15 10.8815 15H15.4167C16 15 16.4931 14.7986 16.8958 14.3958C17.2986 13.9931 17.5 13.5 17.5 12.9167C17.5 12.3333 17.2986 11.8403 16.8958 11.4375C16.4931 11.0347 16 10.8333 15.4167 10.8333H14.1667V9.16667C14.1667 8.01389 13.7604 7.03125 12.9479 6.21875C12.1354 5.40625 11.1528 5 10 5C8.84722 5 7.86458 5.40625 7.05208 6.21875C6.23958 7.03125 5.83333 8.01389 5.83333 9.16667H5.40063C4.61104 9.16667 3.93021 9.45139 3.35812 10.0208C2.78604 10.5903 2.5 11.2778 2.5 12.0833C2.5 12.8889 2.78472 13.5764 3.35417 14.1458C3.92361 14.7153 4.61111 15 5.41667 15H6.875C7.05208 15 7.20056 15.0599 7.32042 15.1798C7.44014 15.2997 7.5 15.4481 7.5 15.6252C7.5 15.8024 7.44014 15.9508 7.32042 16.0704C7.20056 16.1901 7.05208 16.25 6.875 16.25H5.41667C4.265 16.25 3.28264 15.8505 2.46958 15.0515C1.65653 14.2524 1.25 13.2759 1.25 12.1219C1.25 11.0866 1.58306 10.176 2.24917 9.39021C2.91528 8.60438 3.74139 8.13882 4.7275 7.99354C4.99458 6.74785 5.62097 5.72917 6.60667 4.9375C7.59222 4.14583 8.72333 3.75 10 3.75C11.5089 3.75 12.7889 4.27556 13.84 5.32667C14.8911 6.37778 15.4167 7.65778 15.4167 9.16667V9.58333H15.6731C16.5513 9.65167 17.2837 10.0048 17.8702 10.6427C18.4567 11.2805 18.75 12.0385 18.75 12.9167C18.75 13.8461 18.4295 14.634 17.7885 15.2804C17.1474 15.9268 16.3622 16.25 15.4327 16.25H10.8815C10.4605 16.25 10.1042 16.1042 9.8125 15.8125C9.52083 15.5208 9.375 15.1645 9.375 14.7435V10.1794Z" fill="#7C7C7C"/>
</g>
</svg>
